<mxfile host="app.diagrams.net" modified="2023-05-15T03:10:17.913Z" agent="Mozilla/5.0 (Macintosh; Intel Mac OS X 10_15_7) AppleWebKit/537.36 (KHTML, like Gecko) Chrome/112.0.0.0 Safari/537.36" version="21.3.0" etag="oFOKWYrX5ZvwMculz-JA" type="github">
  <diagram name="Page-1" id="OTyftU4ntGg_i0Td_wiW">
    <mxGraphModel>
      <root>
        <mxCell id="0" />
        <mxCell id="1" parent="0" />
      </root>
    </mxGraphModel>
  </diagram>
</mxfile>
